<svg xmlns="http://www.w3.org/2000/svg" width="64" height="64" viewBox="0 0 64 64">
  <defs>
    <linearGradient id="g" x1="0" y1="0" x2="1" y2="1">
      <stop offset="0" stop-color="#6da6d8"/>
      <stop offset="1" stop-color="#245b9b"/>
    </linearGradient>
  </defs>
  <path d="M17 9c15 4 25 4 30 0M13 18c19 7 31 7 38 0M11 28c21 8 34 8 42 0M12 39c19 7 32 7 40 0M17 50c14 5 24 5 30 0" fill="none" stroke="url(#g)" stroke-width="4" stroke-linecap="round"/>
  <path d="M17 9c-8 13-8 29 0 41M47 9c8 13 8 29 0 41" fill="none" stroke="#173f73" stroke-width="3" stroke-linecap="round"/>
</svg>
